<?xml version="1.0" encoding="UTF-8"?>
<svg width="800px" height="800px" viewBox="0 0 800 800" version="1.1" xmlns="http://www.w3.org/2000/svg" xmlns:xlink="http://www.w3.org/1999/xlink">
    <!-- Generator: Sketch 52.4 (67378) - http://www.bohemiancoding.com/sketch -->
    <title>Group 3</title>
    <desc>Created with Sketch.</desc>
    <defs>
        <path d="M594.140625,7.01390278e-14 C706.875,7.01390278e-14 780,73.1254667 780,185.860561 L780,594.144417 C780,706.879511 706.875,780.004978 594.140625,780.004978 L185.859375,780.004978 C73.125,780.004978 0,706.879511 0,594.144417 L0,185.860561 C0,73.1254667 73.125,7.01390279e-14 185.859375,7.01390279e-14 L594.140625,7.01390278e-14 Z" id="path-1"></path>
        <filter x="-1.3%" y="-1.3%" width="105.1%" height="105.1%" filterUnits="objectBoundingBox" id="filter-3">
            <feOffset dx="10" dy="10" in="SourceAlpha" result="shadowOffsetOuter1"></feOffset>
            <feGaussianBlur stdDeviation="5" in="shadowOffsetOuter1" result="shadowBlurOuter1"></feGaussianBlur>
            <feColorMatrix values="0 0 0 0 0.780213648   0 0 0 0 0.741209123   0 0 0 0 0.741209123  0 0 0 1 0" type="matrix" in="shadowBlurOuter1"></feColorMatrix>
        </filter>
        <linearGradient x1="29.6060231%" y1="-47.4888162%" x2="88.8977506%" y2="55.6156476%" id="linearGradient-4">
            <stop stop-color="#5C4028" offset="0%"></stop>
            <stop stop-color="#F4003E" offset="100%"></stop>
        </linearGradient>
        <linearGradient x1="23.8144184%" y1="116.61407%" x2="61.7474032%" y2="-14.1879667%" id="linearGradient-5">
            <stop stop-color="#000000" stop-opacity="0" offset="0%"></stop>
            <stop stop-color="#000000" stop-opacity="0.531204841" offset="0%"></stop>
            <stop stop-color="#000000" offset="100%"></stop>
        </linearGradient>
        <path d="M46.6638511,217.475845 L233.6443,122.589441 C251.555377,111.240728 264.473155,104.930446 272.397634,103.658596 C291.854201,100.535888 308.849016,110.355441 317.757929,111.663727 C363.415912,118.368666 382.198217,145.681502 383.754281,153.576195 C384.375016,156.725492 386.289127,160.887265 386.574659,164.999998 C386.850527,168.97352 386.14293,169.361374 385.31776,172.24938 C385.034026,173.242417 384.81789,178.007937 384.48026,178.561557 C382.338897,182.07281 379.094641,188.29217 372.104998,193.843733 C369.587451,195.843309 364.680887,198.244013 357.385308,201.045846 L82.4509395,306.809156 C62.060195,314.653183 39.1713902,304.482059 31.327363,284.091314 C30.4776017,281.882339 29.8277995,279.601558 29.3857753,277.276416 L26.0094282,259.516109 C22.7683488,242.467339 31.1883601,225.329146 46.6638511,217.475845 Z" id="path-6"></path>
        <linearGradient x1="65.7013322%" y1="-19.0658903%" x2="28.7226751%" y2="50%" id="linearGradient-7">
            <stop stop-color="#5C4028" offset="0%"></stop>
            <stop stop-color="#FF2E63" offset="100%"></stop>
        </linearGradient>
        <linearGradient x1="50%" y1="0%" x2="50%" y2="8.66600434%" id="linearGradient-8">
            <stop stop-color="#FFFFFF" offset="0%"></stop>
            <stop stop-color="#7F7F7F" offset="0%"></stop>
            <stop stop-color="#000000" offset="100%"></stop>
        </linearGradient>
        <path d="M155.035318,207.031475 C113.081065,189.634505 108.200637,143.016873 114.90073,131.351544 C107.457045,135.163008 89.7946404,191.904745 86.5713063,233.387254 C85.4680141,247.586008 89.1233449,256.698331 91.2995227,265.762325 C93.2848115,274.031205 106.582959,286.575515 121.913828,295.713267 C138.044789,305.327901 156.415782,311.435446 165.796375,315.772705 L248.777748,334.471325 C249.290244,334.662076 322.811936,351.684674 398.011921,369.575158 C455.187128,383.177449 512.963823,397.182744 540.46792,400.416268 C551.320067,401.692103 554.059591,385.018152 553.829039,384.057882 C552.995825,380.58748 550.454573,372.353752 538.480216,365.765867 C491.903304,340.140832 374.581295,298.318457 361.479702,292.956187 L303.108547,268.118616 C301.379121,267.474923 259.406071,249.331769 257.726885,248.847624 L155.035318,207.031475 Z" id="path-9"></path>
        <linearGradient x1="138.618339%" y1="95.4661018%" x2="59.8783492%" y2="66.0649928%" id="linearGradient-10">
            <stop stop-color="#5C4028" offset="0%"></stop>
            <stop stop-color="#FF2E63" offset="100%"></stop>
        </linearGradient>
        <path d="M460.86219,211.83187 C518.037396,225.434162 527.125447,226.800651 554.629544,230.034175 C565.481691,231.310009 568.221214,214.636058 567.990663,213.675789 C567.157448,210.205387 564.616197,201.971658 552.64184,195.383774 C506.064927,169.758739 490.918535,167.083514 477.816942,161.721244 C450.170091,191.240078 444.518507,207.94362 460.86219,211.83187 Z" id="path-11"></path>
        <linearGradient x1="50%" y1="122.752192%" x2="50%" y2="22.9817695%" id="linearGradient-12">
            <stop stop-color="#5C4028" offset="0%"></stop>
            <stop stop-color="#FF2E63" offset="100%"></stop>
        </linearGradient>
    </defs>
    <g id="Page-2" stroke="none" stroke-width="1" fill="none" fill-rule="evenodd">
        <g id="logo-option-9" transform="translate(-122.000000, -122.000000)">
            <g id="Group-3" transform="translate(122.000000, 122.000000)">
                <mask id="mask-2" fill="white">
                    <use xlink:href="#path-1"></use>
                </mask>
                <g id="Mask">
                    <use fill="black" fill-opacity="1" filter="url(#filter-3)" xlink:href="#path-1"></use>
                    <use fill="#FFFFFF" fill-rule="evenodd" xlink:href="#path-1"></use>
                </g>
                <g id="Group" mask="url(#mask-2)">
                    <g transform="translate(47.000000, 124.000000)">
                        <path d="M324,91.1796269 L392.745736,237 L463,199.47412 L377.428382,50.4244422 C370.038022,45.4748141 364.580235,43 361.05502,43 C357.529806,43 353.092356,45.4748141 347.742671,50.4244422 C340.834512,59.2095614 335.986355,65.995108 333.198199,70.7810822 C330.410043,75.5670564 327.343977,82.3665713 324,91.1796269 Z" id="Path-9-Copy-3" fill="#F4003E"></path>
                        <path d="M325,91.0222467 L351.421863,146 L411,106.206736 L378.54291,50.40019 C371.136708,45.46673 365.667222,43 362.134451,43 C358.60168,43 354.154718,45.46673 348.793565,50.40019 C341.870598,59.1566123 337.012048,65.9199938 334.217916,70.6903345 C331.423783,75.4606751 328.351145,82.2379792 325,91.0222467 Z" id="Path-9-Copy-4" fill="url(#linearGradient-4)"></path>
                        <g id="Rectangle-2-Copy" fill="none" transform="translate(205.978124, 206.253064) rotate(141.000000) translate(-205.978124, -206.253064) ">
                            <use fill="#FF2E63" xlink:href="#path-6"></use>
                            <use fill-opacity="0.5" fill="url(#linearGradient-5)" style="mix-blend-mode: soft-light;" xlink:href="#path-6"></use>
                        </g>
                        <path d="M74.7497338,309.139279 L79.5853654,261.606354 C97.4964426,250.257641 110.414221,243.947359 118.338699,242.675509 C137.795266,239.552801 154.790082,249.372354 163.698994,250.68064 C209.356978,257.385579 228.139282,284.698415 229.695347,292.593108 C230.316082,295.742405 232.230192,299.904178 232.515725,304.016911 C232.791592,307.990433 232.083995,308.378287 231.258825,311.266293 C230.975092,312.25933 230.758955,317.02485 230.421326,317.57847 C228.279962,321.089723 225.035706,327.309083 218.046063,332.860646 C215.528516,334.860222 210.621953,337.260926 203.326373,340.062759 L144.466736,361.222002 C126.828433,367.562733 107.109908,362.891079 94.1912141,349.310873 L85.2872682,339.950994 C77.4475079,331.709792 73.5985222,320.455371 74.7497338,309.139279 Z" id="Rectangle-2-Copy-2" fill-opacity="0.7" fill="url(#linearGradient-7)" transform="translate(153.562892, 303.039085) rotate(141.000000) translate(-153.562892, -303.039085) "></path>
                        <path d="M257,33.8141013 C260.327443,32.4787681 262.858353,31.6581942 264.59273,31.3523794 C266.591575,30.9999324 270.685734,30.4849809 274.347587,30.5235744 C277.76878,30.5596315 280.807524,31.1302225 281.548164,31.3523794 C292.522696,34.6442168 301.479487,43.4355887 307.252668,47.8566329 C310.319053,50.204839 314.752449,54.482539 319.163203,58.2768631 C323.743357,62.2169122 322.037854,93.1044207 323.655254,96 C334.811729,73.1526255 341.03806,60.8386719 342.334248,59.0581391 C342.435611,58.9189011 342.888594,58.4062358 342.982859,58.2768631 C347.762582,51.7170211 351.113836,47.5682066 354.599211,45.9208544 C356.431398,45.054877 358.504991,44.0275503 361.133861,43.9511747 C363.880468,43.8713786 365.857372,44.7859264 368.827956,45.9208544 C369.578254,46.20751 371.248188,47.234602 372.244042,47.8566329 C373.246045,48.4825049 375.831365,49.4668724 380,50.8097354 L373.591762,42.6265656 C372.1153,40.8348891 370.794854,39.4154966 369.630426,38.3683881 C368.465997,37.3212796 366.519833,35.803184 363.791933,33.8141013 C361.659271,32.2966045 359.824251,31.1997622 358.286872,30.5235744 C356.749493,29.8473866 353.063552,29.2866915 347.229049,28.8414891 C320.632218,28.0878824 300.97803,27.8404525 288.266484,28.0991996 C275.554938,28.3579466 267.663687,29.1660716 264.59273,30.5235744" id="Path-10-Copy-2" fill="#FF2E63"></path>
                        <g id="Combined-Shape" fill="none" transform="translate(320.105300, 265.918709) rotate(-50.000000) translate(-320.105300, -265.918709) ">
                            <use fill="#FF2E63" xlink:href="#path-9"></use>
                            <use fill-opacity="0.5" fill="url(#linearGradient-8)" style="mix-blend-mode: overlay;" xlink:href="#path-9"></use>
                        </g>
                        <g id="Combined-Shape-Copy" fill="none" transform="translate(509.878901, 195.912512) rotate(-50.000000) translate(-509.878901, -195.912512) ">
                            <use fill="url(#linearGradient-10)" xlink:href="#path-11"></use>
                            <use fill-opacity="0.5" fill="url(#linearGradient-8)" style="mix-blend-mode: overlay;" xlink:href="#path-11"></use>
                        </g>
                        <path d="M562.480594,185.00692 L562.480594,383.181552 C564.583661,387.029173 566.29978,389.884222 567.628951,391.746698 C572.50086,398.573374 576.294196,401.938835 576.636995,402.254232 C579.145825,404.562508 581.541243,406.77086 584.623279,406.94973 C585.8732,407.022271 589.962566,407.283363 591.931111,405.198229 C592.706944,404.376446 593.396574,402.346608 594,399.108713 L594,161.896674 C592.152839,156.724106 590.64395,153.289224 589.473332,151.59203 C586.770966,147.674069 583.275826,146.051719 580.960991,144.921687 C577.142036,143.057389 570.613204,144.021281 561.374496,147.813363 C542.653709,157.794447 534.716772,162.488884 537.563684,161.896674 C540.455357,161.295152 551.539374,162.378436 554.394436,164.454768 C554.898312,164.821209 556.276159,165.265399 557.300431,166.388082 C558.287774,167.470288 559.05317,168.79365 559.490526,169.173069 C560.746506,170.262667 561.743195,175.540617 562.480594,185.00692 Z" id="Path-8" fill="#FF2E63"></path>
                        <path d="M562,340 L562,383.140119 C564.135134,386.994433 565.877419,389.854448 567.226856,391.720165 C572.17305,398.558716 576.024225,401.930031 576.372252,402.245976 C578.919335,404.558268 581.351277,406.770461 584.480307,406.949643 C585.749286,407.02231 589.901005,407.283856 591.899566,405.195095 C592.687228,404.371883 593.387373,402.338513 594,399.094986 L594,347.394969 L562,340 Z" id="Path-8-Copy" fill="url(#linearGradient-12)"></path>
                        <path d="M419,295.246297 L486.726843,245 L567.85008,383.791596 C575.685933,392.972927 581.202351,398.028438 584.399331,398.95813 C584.78612,399.070609 587.890732,400.405406 591.242516,397.95162 C592.178588,397.266337 593.431083,395.178088 595,391.686872 C594.405748,407.146085 593.153253,418.122215 591.242516,424.615261 C590.130889,428.392782 589.207516,433.226243 586.528975,437.779493 C585.245302,439.961607 582.591026,443.21252 578.566145,447.532234 C570.945987,453.077549 565.362763,456.675027 561.81647,458.324668 C553.921969,461.996981 546.315355,462.848883 541.20184,463.490732 C535.433358,464.214792 527.052686,464.464795 518.106031,462.175499 C515.220635,461.437176 510.861681,459.632876 505.029168,456.7626 C499.063344,452.875475 494.751101,449.798687 492.092439,447.532234 C489.433777,445.265782 486.239211,441.402016 482.508742,435.940938 L419,295.246297 Z" id="Path-11-Copy-3" fill="#F4003E"></path>
                    </g>
                </g>
            </g>
        </g>
    </g>
</svg>